<mxfile host="app.diagrams.net" agent="Mozilla/5.0 (Windows NT 10.0; Win64; x64) AppleWebKit/537.36 (KHTML, like Gecko) Chrome/127.0.0.0 Safari/537.36" version="24.7.5">
  <diagram name="Page-1" id="PCRESpBV34MVSR2nz-yB">
    <mxGraphModel dx="875" dy="471" grid="1" gridSize="10" guides="1" tooltips="1" connect="1" arrows="1" fold="1" page="1" pageScale="1" pageWidth="827" pageHeight="1169" math="0" shadow="0">
      <root>
        <mxCell id="0" />
        <mxCell id="1" parent="0" />
        <mxCell id="YJrM3ctRiWf-CLOH15jP-16" value="" style="edgeStyle=orthogonalEdgeStyle;rounded=0;orthogonalLoop=1;jettySize=auto;html=1;endArrow=none;endFill=0;entryX=0.5;entryY=0;entryDx=0;entryDy=0;shape=link;" parent="1" source="YJrM3ctRiWf-CLOH15jP-18" target="YJrM3ctRiWf-CLOH15jP-25" edge="1">
          <mxGeometry relative="1" as="geometry">
            <mxPoint x="986.53" y="415" as="targetPoint" />
          </mxGeometry>
        </mxCell>
        <mxCell id="YJrM3ctRiWf-CLOH15jP-17" style="rounded=0;orthogonalLoop=1;jettySize=auto;html=1;exitX=0.5;exitY=0;exitDx=0;exitDy=0;entryX=0.5;entryY=1;entryDx=0;entryDy=0;endArrow=none;endFill=0;" parent="1" source="YJrM3ctRiWf-CLOH15jP-18" target="YJrM3ctRiWf-CLOH15jP-40" edge="1">
          <mxGeometry relative="1" as="geometry" />
        </mxCell>
        <mxCell id="YJrM3ctRiWf-CLOH15jP-18" value="TopLevelCondition" style="rounded=0;whiteSpace=wrap;html=1;" parent="1" vertex="1">
          <mxGeometry x="930" y="290" width="120" height="40" as="geometry" />
        </mxCell>
        <mxCell id="YJrM3ctRiWf-CLOH15jP-21" style="rounded=0;orthogonalLoop=1;jettySize=auto;html=1;exitX=0.5;exitY=1;exitDx=0;exitDy=0;entryX=0.5;entryY=0;entryDx=0;entryDy=0;endArrow=none;endFill=0;" parent="1" source="YJrM3ctRiWf-CLOH15jP-25" target="YJrM3ctRiWf-CLOH15jP-27" edge="1">
          <mxGeometry relative="1" as="geometry" />
        </mxCell>
        <mxCell id="YJrM3ctRiWf-CLOH15jP-22" style="rounded=0;orthogonalLoop=1;jettySize=auto;html=1;exitX=0.5;exitY=1;exitDx=0;exitDy=0;entryX=0.5;entryY=0;entryDx=0;entryDy=0;endArrow=none;endFill=0;" parent="1" source="YJrM3ctRiWf-CLOH15jP-25" target="YJrM3ctRiWf-CLOH15jP-29" edge="1">
          <mxGeometry relative="1" as="geometry" />
        </mxCell>
        <mxCell id="YJrM3ctRiWf-CLOH15jP-23" style="rounded=0;orthogonalLoop=1;jettySize=auto;html=1;exitX=0.5;exitY=1;exitDx=0;exitDy=0;entryX=0.5;entryY=0;entryDx=0;entryDy=0;endArrow=none;endFill=0;" parent="1" source="YJrM3ctRiWf-CLOH15jP-25" target="YJrM3ctRiWf-CLOH15jP-31" edge="1">
          <mxGeometry relative="1" as="geometry" />
        </mxCell>
        <mxCell id="YJrM3ctRiWf-CLOH15jP-25" value="d" style="ellipse;whiteSpace=wrap;html=1;aspect=fixed;" parent="1" vertex="1">
          <mxGeometry x="975" y="350" width="30" height="30" as="geometry" />
        </mxCell>
        <mxCell id="S_xRdZhXCikBJRBEPRtZ-13" style="edgeStyle=orthogonalEdgeStyle;rounded=0;orthogonalLoop=1;jettySize=auto;html=1;exitX=0.5;exitY=1;exitDx=0;exitDy=0;entryX=0.5;entryY=1;entryDx=0;entryDy=0;endArrow=none;endFill=0;" edge="1" parent="1" source="YJrM3ctRiWf-CLOH15jP-27" target="YJrM3ctRiWf-CLOH15jP-70">
          <mxGeometry relative="1" as="geometry">
            <Array as="points">
              <mxPoint x="860" y="540" />
              <mxPoint x="1325" y="540" />
            </Array>
          </mxGeometry>
        </mxCell>
        <mxCell id="YJrM3ctRiWf-CLOH15jP-27" value="AllCondition" style="rounded=0;whiteSpace=wrap;html=1;" parent="1" vertex="1">
          <mxGeometry x="800" y="440" width="120" height="40" as="geometry" />
        </mxCell>
        <mxCell id="S_xRdZhXCikBJRBEPRtZ-12" style="edgeStyle=orthogonalEdgeStyle;rounded=0;orthogonalLoop=1;jettySize=auto;html=1;exitX=0.5;exitY=1;exitDx=0;exitDy=0;entryX=0.5;entryY=1;entryDx=0;entryDy=0;endArrow=none;endFill=0;" edge="1" parent="1" source="YJrM3ctRiWf-CLOH15jP-29" target="YJrM3ctRiWf-CLOH15jP-69">
          <mxGeometry relative="1" as="geometry">
            <Array as="points">
              <mxPoint x="990" y="520" />
              <mxPoint x="1291" y="520" />
            </Array>
          </mxGeometry>
        </mxCell>
        <mxCell id="YJrM3ctRiWf-CLOH15jP-29" value="AnyCondition" style="rounded=0;whiteSpace=wrap;html=1;" parent="1" vertex="1">
          <mxGeometry x="930" y="440" width="120" height="40" as="geometry" />
        </mxCell>
        <mxCell id="S_xRdZhXCikBJRBEPRtZ-10" style="edgeStyle=orthogonalEdgeStyle;rounded=0;orthogonalLoop=1;jettySize=auto;html=1;exitX=0.5;exitY=1;exitDx=0;exitDy=0;entryX=0.5;entryY=1;entryDx=0;entryDy=0;shape=link;" edge="1" parent="1" source="YJrM3ctRiWf-CLOH15jP-31" target="YJrM3ctRiWf-CLOH15jP-68">
          <mxGeometry relative="1" as="geometry" />
        </mxCell>
        <mxCell id="YJrM3ctRiWf-CLOH15jP-31" value="NotCondition" style="rounded=0;whiteSpace=wrap;html=1;" parent="1" vertex="1">
          <mxGeometry x="1060" y="440" width="120" height="40" as="geometry" />
        </mxCell>
        <mxCell id="YJrM3ctRiWf-CLOH15jP-34" value="" style="edgeStyle=orthogonalEdgeStyle;rounded=0;orthogonalLoop=1;jettySize=auto;html=1;endArrow=none;endFill=0;" parent="1" source="YJrM3ctRiWf-CLOH15jP-38" target="YJrM3ctRiWf-CLOH15jP-40" edge="1">
          <mxGeometry relative="1" as="geometry" />
        </mxCell>
        <mxCell id="YJrM3ctRiWf-CLOH15jP-35" style="edgeStyle=orthogonalEdgeStyle;rounded=0;orthogonalLoop=1;jettySize=auto;html=1;exitX=1;exitY=0.5;exitDx=0;exitDy=0;entryX=0.5;entryY=0;entryDx=0;entryDy=0;endArrow=none;endFill=0;" parent="1" source="YJrM3ctRiWf-CLOH15jP-38" target="YJrM3ctRiWf-CLOH15jP-69" edge="1">
          <mxGeometry relative="1" as="geometry">
            <mxPoint x="1416" y="350" as="targetPoint" />
            <Array as="points">
              <mxPoint x="1291" y="217" />
            </Array>
          </mxGeometry>
        </mxCell>
        <mxCell id="YJrM3ctRiWf-CLOH15jP-36" style="edgeStyle=orthogonalEdgeStyle;rounded=0;orthogonalLoop=1;jettySize=auto;html=1;exitX=1;exitY=0;exitDx=0;exitDy=0;entryX=0.5;entryY=0;entryDx=0;entryDy=0;endArrow=none;endFill=0;" parent="1" source="YJrM3ctRiWf-CLOH15jP-38" target="YJrM3ctRiWf-CLOH15jP-70" edge="1">
          <mxGeometry relative="1" as="geometry">
            <mxPoint x="1486" y="350" as="targetPoint" />
            <Array as="points">
              <mxPoint x="1325" y="197" />
              <mxPoint x="1325" y="373" />
            </Array>
          </mxGeometry>
        </mxCell>
        <mxCell id="YJrM3ctRiWf-CLOH15jP-37" style="rounded=0;orthogonalLoop=1;jettySize=auto;html=1;exitX=0;exitY=0.5;exitDx=0;exitDy=0;entryX=1;entryY=0.5;entryDx=0;entryDy=0;endArrow=none;endFill=0;" parent="1" source="YJrM3ctRiWf-CLOH15jP-38" target="YJrM3ctRiWf-CLOH15jP-60" edge="1">
          <mxGeometry relative="1" as="geometry" />
        </mxCell>
        <mxCell id="YJrM3ctRiWf-CLOH15jP-38" value="NestedCondition" style="rounded=0;whiteSpace=wrap;html=1;" parent="1" vertex="1">
          <mxGeometry x="1006.53" y="197" width="120" height="40" as="geometry" />
        </mxCell>
        <mxCell id="YJrM3ctRiWf-CLOH15jP-39" style="rounded=0;orthogonalLoop=1;jettySize=auto;html=1;exitX=0.5;exitY=1;exitDx=0;exitDy=0;entryX=0.5;entryY=0;entryDx=0;entryDy=0;endArrow=none;endFill=0;" parent="1" source="YJrM3ctRiWf-CLOH15jP-40" target="YJrM3ctRiWf-CLOH15jP-42" edge="1">
          <mxGeometry relative="1" as="geometry" />
        </mxCell>
        <mxCell id="YJrM3ctRiWf-CLOH15jP-40" value="d" style="ellipse;whiteSpace=wrap;html=1;aspect=fixed;" parent="1" vertex="1">
          <mxGeometry x="1051.53" y="248.75" width="30" height="30" as="geometry" />
        </mxCell>
        <mxCell id="YJrM3ctRiWf-CLOH15jP-41" style="edgeStyle=orthogonalEdgeStyle;rounded=0;orthogonalLoop=1;jettySize=auto;html=1;exitX=0.5;exitY=1;exitDx=0;exitDy=0;entryX=0.5;entryY=0;entryDx=0;entryDy=0;endArrow=none;endFill=0;" parent="1" source="YJrM3ctRiWf-CLOH15jP-42" target="S_xRdZhXCikBJRBEPRtZ-1" edge="1">
          <mxGeometry relative="1" as="geometry">
            <mxPoint x="1136.7350000000001" y="372.5" as="targetPoint" />
          </mxGeometry>
        </mxCell>
        <mxCell id="YJrM3ctRiWf-CLOH15jP-42" value="ConditionProperties" style="rounded=0;whiteSpace=wrap;html=1;" parent="1" vertex="1">
          <mxGeometry x="1073.27" y="290" width="120" height="40" as="geometry" />
        </mxCell>
        <mxCell id="YJrM3ctRiWf-CLOH15jP-43" style="rounded=0;orthogonalLoop=1;jettySize=auto;html=1;exitX=0.678;exitY=0.004;exitDx=0;exitDy=0;entryX=0.25;entryY=1;entryDx=0;entryDy=0;endArrow=none;endFill=0;exitPerimeter=0;" parent="1" source="YJrM3ctRiWf-CLOH15jP-44" target="YJrM3ctRiWf-CLOH15jP-42" edge="1">
          <mxGeometry relative="1" as="geometry" />
        </mxCell>
        <mxCell id="YJrM3ctRiWf-CLOH15jP-44" value="Operator" style="ellipse;whiteSpace=wrap;html=1;" parent="1" vertex="1">
          <mxGeometry x="1050" y="350" width="55" height="35" as="geometry" />
        </mxCell>
        <mxCell id="YJrM3ctRiWf-CLOH15jP-45" style="edgeStyle=orthogonalEdgeStyle;rounded=0;orthogonalLoop=1;jettySize=auto;html=1;exitX=0.5;exitY=1;exitDx=0;exitDy=0;" parent="1" source="YJrM3ctRiWf-CLOH15jP-44" target="YJrM3ctRiWf-CLOH15jP-44" edge="1">
          <mxGeometry relative="1" as="geometry" />
        </mxCell>
        <mxCell id="YJrM3ctRiWf-CLOH15jP-46" style="rounded=0;orthogonalLoop=1;jettySize=auto;html=1;exitX=0.26;exitY=0.043;exitDx=0;exitDy=0;entryX=0.75;entryY=1;entryDx=0;entryDy=0;endArrow=none;endFill=0;exitPerimeter=0;" parent="1" source="YJrM3ctRiWf-CLOH15jP-47" target="YJrM3ctRiWf-CLOH15jP-42" edge="1">
          <mxGeometry relative="1" as="geometry" />
        </mxCell>
        <mxCell id="YJrM3ctRiWf-CLOH15jP-47" value="Value" style="ellipse;whiteSpace=wrap;html=1;" parent="1" vertex="1">
          <mxGeometry x="1168.03" y="350" width="53.47" height="35" as="geometry" />
        </mxCell>
        <mxCell id="YJrM3ctRiWf-CLOH15jP-49" value="N" style="text;html=1;align=center;verticalAlign=middle;whiteSpace=wrap;rounded=0;" parent="1" vertex="1">
          <mxGeometry x="1125" y="183" width="15" height="14" as="geometry" />
        </mxCell>
        <mxCell id="YJrM3ctRiWf-CLOH15jP-50" value="N" style="text;html=1;align=center;verticalAlign=middle;whiteSpace=wrap;rounded=0;" parent="1" vertex="1">
          <mxGeometry x="1126.53" y="202" width="13.47" height="14" as="geometry" />
        </mxCell>
        <mxCell id="YJrM3ctRiWf-CLOH15jP-52" value="1" style="text;html=1;align=center;verticalAlign=middle;whiteSpace=wrap;rounded=0;" parent="1" vertex="1">
          <mxGeometry x="1100" y="485" width="10" height="10" as="geometry" />
        </mxCell>
        <mxCell id="YJrM3ctRiWf-CLOH15jP-53" value="1" style="text;html=1;align=center;verticalAlign=middle;whiteSpace=wrap;rounded=0;" parent="1" vertex="1">
          <mxGeometry x="971.74" y="485" width="10" height="10" as="geometry" />
        </mxCell>
        <mxCell id="YJrM3ctRiWf-CLOH15jP-54" value="1" style="text;html=1;align=center;verticalAlign=middle;whiteSpace=wrap;rounded=0;" parent="1" vertex="1">
          <mxGeometry x="840" y="485" width="13" height="10" as="geometry" />
        </mxCell>
        <mxCell id="YJrM3ctRiWf-CLOH15jP-57" value="1" style="text;html=1;align=center;verticalAlign=middle;whiteSpace=wrap;rounded=0;" parent="1" vertex="1">
          <mxGeometry x="1126.53" y="224.75" width="13.47" height="10" as="geometry" />
        </mxCell>
        <mxCell id="YJrM3ctRiWf-CLOH15jP-60" value="&lt;u&gt;Id&lt;/u&gt;" style="ellipse;whiteSpace=wrap;html=1;" parent="1" vertex="1">
          <mxGeometry x="960" y="206.12" width="33.47" height="21.75" as="geometry" />
        </mxCell>
        <mxCell id="YJrM3ctRiWf-CLOH15jP-67" style="edgeStyle=orthogonalEdgeStyle;rounded=0;orthogonalLoop=1;jettySize=auto;html=1;exitX=0.5;exitY=0;exitDx=0;exitDy=0;entryX=1;entryY=1;entryDx=0;entryDy=0;endArrow=none;endFill=0;" parent="1" source="YJrM3ctRiWf-CLOH15jP-68" target="YJrM3ctRiWf-CLOH15jP-38" edge="1">
          <mxGeometry relative="1" as="geometry">
            <Array as="points">
              <mxPoint x="1258" y="237" />
            </Array>
          </mxGeometry>
        </mxCell>
        <mxCell id="YJrM3ctRiWf-CLOH15jP-68" value="not" style="rhombus;whiteSpace=wrap;html=1;" parent="1" vertex="1">
          <mxGeometry x="1241" y="372.5" width="33.47" height="35" as="geometry" />
        </mxCell>
        <mxCell id="YJrM3ctRiWf-CLOH15jP-69" value="any" style="rhombus;whiteSpace=wrap;html=1;" parent="1" vertex="1">
          <mxGeometry x="1274.47" y="372.5" width="33.47" height="35" as="geometry" />
        </mxCell>
        <mxCell id="YJrM3ctRiWf-CLOH15jP-70" value="all" style="rhombus;whiteSpace=wrap;html=1;" parent="1" vertex="1">
          <mxGeometry x="1307.94" y="372.5" width="33.47" height="35" as="geometry" />
        </mxCell>
        <mxCell id="S_xRdZhXCikBJRBEPRtZ-1" value="Fact" style="ellipse;whiteSpace=wrap;html=1;" vertex="1" parent="1">
          <mxGeometry x="1110" y="350" width="55" height="35" as="geometry" />
        </mxCell>
        <mxCell id="S_xRdZhXCikBJRBEPRtZ-8" value="" style="endArrow=none;html=1;rounded=0;curved=1;" edge="1" parent="1">
          <mxGeometry width="50" height="50" relative="1" as="geometry">
            <mxPoint x="1160" y="260" as="sourcePoint" />
            <mxPoint x="1160" y="180" as="targetPoint" />
            <Array as="points">
              <mxPoint x="1180" y="220" />
            </Array>
          </mxGeometry>
        </mxCell>
      </root>
    </mxGraphModel>
  </diagram>
</mxfile>
